<svg xmlns="http://www.w3.org/2000/svg" viewBox="-144 134.2 582 338.1"><path d="M432.2 411.4l-27.3-27.3c13.4-23.9 21.1-51.5 21.1-80.9 0-89.6-71.6-162.4-160.5-164H-136c-1.7 0-3 1.3-3 3v54c0 1.6 1.3 3 3 3h100c1.7 0 3 1.3 3 3v233c0 1.6 1.3 3 3 3h54c1.7 0 3-1.4 3-3v-233c0-1.7 1.3-3 3-3h235.2c.3 0 .5 0 .7-.1h2.3v.2c54.4 2.9 97.8 48.4 97.8 103.9 0 12.5-2.2 24.6-6.3 35.7L341 320.2c-1.2-1.2-3.1-1.2-4.2 0l-38.2 38.2c-1.2 1.2-1.2 3.1 0 4.2l24.8 24.8c-17.1 12.5-38 19.9-60.7 19.9-54.7 0-99.7-43-103.1-97.3h-.2v-2c0-1.7-1.3-3-3-3h-54c-1.5 0-2.7 1-2.9 2.4 2.2 88.7 74.5 159.9 163.3 159.9 39.3 0 75.3-13.9 103.5-37.1l23.6 23.6c1.2 1.2 3.1 1.2 4.2 0l38.2-38.2c1-1.1 1-3.1-.1-4.2z"/></svg>